<mxfile host="app.diagrams.net" modified="2020-11-23T20:52:38.103Z" agent="5.0 (Windows NT 10.0; Win64; x64) AppleWebKit/537.36 (KHTML, like Gecko) Chrome/86.0.4240.198 Safari/537.36" etag="CxjZ1VZrs6Ba9a1Ec3zx" version="13.9.8" type="github">
  <diagram id="R2lEEEUBdFMjLlhIrx00" name="Page-1">
    <mxGraphModel dx="782" dy="380" grid="1" gridSize="10" guides="1" tooltips="1" connect="1" arrows="1" fold="1" page="1" pageScale="1" pageWidth="850" pageHeight="1100" math="0" shadow="0" extFonts="Permanent Marker^https://fonts.googleapis.com/css?family=Permanent+Marker">
      <root>
        <mxCell id="0" />
        <mxCell id="1" parent="0" />
        <mxCell id="APkJGl1ul3EBngyCiWOz-1" value="DrugIntake_Fact" style="shape=table;startSize=30;container=1;collapsible=1;childLayout=tableLayout;fixedRows=1;rowLines=0;fontStyle=1;align=center;resizeLast=1;" vertex="1" parent="1">
          <mxGeometry x="310" y="180" width="180" height="320" as="geometry" />
        </mxCell>
        <mxCell id="APkJGl1ul3EBngyCiWOz-2" value="" style="shape=partialRectangle;collapsible=0;dropTarget=0;pointerEvents=0;fillColor=none;top=0;left=0;bottom=0;right=0;points=[[0,0.5],[1,0.5]];portConstraint=eastwest;" vertex="1" parent="APkJGl1ul3EBngyCiWOz-1">
          <mxGeometry y="30" width="180" height="30" as="geometry" />
        </mxCell>
        <mxCell id="APkJGl1ul3EBngyCiWOz-3" value="PK,FK1" style="shape=partialRectangle;connectable=0;fillColor=none;top=0;left=0;bottom=0;right=0;fontStyle=1;overflow=hidden;" vertex="1" parent="APkJGl1ul3EBngyCiWOz-2">
          <mxGeometry width="50" height="30" as="geometry" />
        </mxCell>
        <mxCell id="APkJGl1ul3EBngyCiWOz-4" value="CalendarID" style="shape=partialRectangle;connectable=0;fillColor=none;top=0;left=0;bottom=0;right=0;align=left;spacingLeft=6;fontStyle=5;overflow=hidden;" vertex="1" parent="APkJGl1ul3EBngyCiWOz-2">
          <mxGeometry x="50" width="130" height="30" as="geometry" />
        </mxCell>
        <mxCell id="APkJGl1ul3EBngyCiWOz-5" value="" style="shape=partialRectangle;collapsible=0;dropTarget=0;pointerEvents=0;fillColor=none;top=0;left=0;bottom=1;right=0;points=[[0,0.5],[1,0.5]];portConstraint=eastwest;" vertex="1" parent="APkJGl1ul3EBngyCiWOz-1">
          <mxGeometry y="60" width="180" height="20" as="geometry" />
        </mxCell>
        <mxCell id="APkJGl1ul3EBngyCiWOz-6" value="PK,FK2" style="shape=partialRectangle;connectable=0;fillColor=none;top=0;left=0;bottom=0;right=0;fontStyle=1;overflow=hidden;" vertex="1" parent="APkJGl1ul3EBngyCiWOz-5">
          <mxGeometry width="50" height="20" as="geometry" />
        </mxCell>
        <mxCell id="APkJGl1ul3EBngyCiWOz-7" value="PatientID" style="shape=partialRectangle;connectable=0;fillColor=none;top=0;left=0;bottom=0;right=0;align=left;spacingLeft=6;fontStyle=5;overflow=hidden;" vertex="1" parent="APkJGl1ul3EBngyCiWOz-5">
          <mxGeometry x="50" width="130" height="20" as="geometry" />
        </mxCell>
        <mxCell id="APkJGl1ul3EBngyCiWOz-14" value="" style="shape=partialRectangle;collapsible=0;dropTarget=0;pointerEvents=0;fillColor=none;top=0;left=0;bottom=0;right=0;points=[[0,0.5],[1,0.5]];portConstraint=eastwest;" vertex="1" parent="APkJGl1ul3EBngyCiWOz-1">
          <mxGeometry y="80" width="180" height="30" as="geometry" />
        </mxCell>
        <mxCell id="APkJGl1ul3EBngyCiWOz-15" value="FK" style="shape=partialRectangle;connectable=0;fillColor=none;top=0;left=0;bottom=0;right=0;fontStyle=1;overflow=hidden;" vertex="1" parent="APkJGl1ul3EBngyCiWOz-14">
          <mxGeometry width="50" height="30" as="geometry" />
        </mxCell>
        <mxCell id="APkJGl1ul3EBngyCiWOz-16" value="NurseID" style="shape=partialRectangle;connectable=0;fillColor=none;top=0;left=0;bottom=0;right=0;align=left;spacingLeft=6;fontStyle=1;overflow=hidden;" vertex="1" parent="APkJGl1ul3EBngyCiWOz-14">
          <mxGeometry x="50" width="130" height="30" as="geometry" />
        </mxCell>
        <mxCell id="APkJGl1ul3EBngyCiWOz-21" value="" style="shape=partialRectangle;collapsible=0;dropTarget=0;pointerEvents=0;fillColor=none;top=0;left=0;bottom=0;right=0;points=[[0,0.5],[1,0.5]];portConstraint=eastwest;" vertex="1" parent="APkJGl1ul3EBngyCiWOz-1">
          <mxGeometry y="110" width="180" height="30" as="geometry" />
        </mxCell>
        <mxCell id="APkJGl1ul3EBngyCiWOz-22" value="PK,FK" style="shape=partialRectangle;connectable=0;fillColor=none;top=0;left=0;bottom=0;right=0;fontStyle=1;overflow=hidden;" vertex="1" parent="APkJGl1ul3EBngyCiWOz-21">
          <mxGeometry width="50" height="30" as="geometry" />
        </mxCell>
        <mxCell id="APkJGl1ul3EBngyCiWOz-23" value="DrugID" style="shape=partialRectangle;connectable=0;fillColor=none;top=0;left=0;bottom=0;right=0;align=left;spacingLeft=6;fontStyle=5;overflow=hidden;" vertex="1" parent="APkJGl1ul3EBngyCiWOz-21">
          <mxGeometry x="50" width="130" height="30" as="geometry" />
        </mxCell>
        <mxCell id="APkJGl1ul3EBngyCiWOz-24" value="" style="shape=partialRectangle;collapsible=0;dropTarget=0;pointerEvents=0;fillColor=none;top=0;left=0;bottom=0;right=0;points=[[0,0.5],[1,0.5]];portConstraint=eastwest;" vertex="1" parent="APkJGl1ul3EBngyCiWOz-1">
          <mxGeometry y="140" width="180" height="30" as="geometry" />
        </mxCell>
        <mxCell id="APkJGl1ul3EBngyCiWOz-25" value="FK" style="shape=partialRectangle;connectable=0;fillColor=none;top=0;left=0;bottom=0;right=0;fontStyle=1;overflow=hidden;" vertex="1" parent="APkJGl1ul3EBngyCiWOz-24">
          <mxGeometry width="50" height="30" as="geometry" />
        </mxCell>
        <mxCell id="APkJGl1ul3EBngyCiWOz-26" value="IngID" style="shape=partialRectangle;connectable=0;fillColor=none;top=0;left=0;bottom=0;right=0;align=left;spacingLeft=6;fontStyle=1;overflow=hidden;" vertex="1" parent="APkJGl1ul3EBngyCiWOz-24">
          <mxGeometry x="50" width="130" height="30" as="geometry" />
        </mxCell>
        <mxCell id="APkJGl1ul3EBngyCiWOz-31" value="" style="shape=partialRectangle;collapsible=0;dropTarget=0;pointerEvents=0;fillColor=none;top=0;left=0;bottom=0;right=0;points=[[0,0.5],[1,0.5]];portConstraint=eastwest;" vertex="1" parent="APkJGl1ul3EBngyCiWOz-1">
          <mxGeometry y="170" width="180" height="30" as="geometry" />
        </mxCell>
        <mxCell id="APkJGl1ul3EBngyCiWOz-32" value="PK" style="shape=partialRectangle;connectable=0;fillColor=none;top=0;left=0;bottom=0;right=0;fontStyle=1;overflow=hidden;" vertex="1" parent="APkJGl1ul3EBngyCiWOz-31">
          <mxGeometry width="50" height="30" as="geometry" />
        </mxCell>
        <mxCell id="APkJGl1ul3EBngyCiWOz-33" value="DieNumber" style="shape=partialRectangle;connectable=0;fillColor=none;top=0;left=0;bottom=0;right=0;align=left;spacingLeft=6;fontStyle=5;overflow=hidden;" vertex="1" parent="APkJGl1ul3EBngyCiWOz-31">
          <mxGeometry x="50" width="130" height="30" as="geometry" />
        </mxCell>
        <mxCell id="APkJGl1ul3EBngyCiWOz-62" value="" style="shape=partialRectangle;collapsible=0;dropTarget=0;pointerEvents=0;fillColor=none;top=0;left=0;bottom=0;right=0;points=[[0,0.5],[1,0.5]];portConstraint=eastwest;" vertex="1" parent="APkJGl1ul3EBngyCiWOz-1">
          <mxGeometry y="200" width="180" height="30" as="geometry" />
        </mxCell>
        <mxCell id="APkJGl1ul3EBngyCiWOz-63" value="" style="shape=partialRectangle;connectable=0;fillColor=none;top=0;left=0;bottom=0;right=0;editable=1;overflow=hidden;" vertex="1" parent="APkJGl1ul3EBngyCiWOz-62">
          <mxGeometry width="50" height="30" as="geometry" />
        </mxCell>
        <mxCell id="APkJGl1ul3EBngyCiWOz-64" value="DieTime" style="shape=partialRectangle;connectable=0;fillColor=none;top=0;left=0;bottom=0;right=0;align=left;spacingLeft=6;overflow=hidden;" vertex="1" parent="APkJGl1ul3EBngyCiWOz-62">
          <mxGeometry x="50" width="130" height="30" as="geometry" />
        </mxCell>
        <mxCell id="APkJGl1ul3EBngyCiWOz-43" value="" style="shape=partialRectangle;collapsible=0;dropTarget=0;pointerEvents=0;fillColor=none;top=0;left=0;bottom=0;right=0;points=[[0,0.5],[1,0.5]];portConstraint=eastwest;" vertex="1" parent="APkJGl1ul3EBngyCiWOz-1">
          <mxGeometry y="230" width="180" height="30" as="geometry" />
        </mxCell>
        <mxCell id="APkJGl1ul3EBngyCiWOz-44" value="" style="shape=partialRectangle;connectable=0;fillColor=none;top=0;left=0;bottom=0;right=0;editable=1;overflow=hidden;" vertex="1" parent="APkJGl1ul3EBngyCiWOz-43">
          <mxGeometry width="50" height="30" as="geometry" />
        </mxCell>
        <mxCell id="APkJGl1ul3EBngyCiWOz-45" value="PatientAge" style="shape=partialRectangle;connectable=0;fillColor=none;top=0;left=0;bottom=0;right=0;align=left;spacingLeft=6;overflow=hidden;" vertex="1" parent="APkJGl1ul3EBngyCiWOz-43">
          <mxGeometry x="50" width="130" height="30" as="geometry" />
        </mxCell>
        <mxCell id="APkJGl1ul3EBngyCiWOz-34" value="" style="shape=partialRectangle;collapsible=0;dropTarget=0;pointerEvents=0;fillColor=none;top=0;left=0;bottom=0;right=0;points=[[0,0.5],[1,0.5]];portConstraint=eastwest;" vertex="1" parent="APkJGl1ul3EBngyCiWOz-1">
          <mxGeometry y="260" width="180" height="20" as="geometry" />
        </mxCell>
        <mxCell id="APkJGl1ul3EBngyCiWOz-35" value="" style="shape=partialRectangle;connectable=0;fillColor=none;top=0;left=0;bottom=0;right=0;editable=1;overflow=hidden;" vertex="1" parent="APkJGl1ul3EBngyCiWOz-34">
          <mxGeometry width="50" height="20" as="geometry" />
        </mxCell>
        <mxCell id="APkJGl1ul3EBngyCiWOz-36" value="Quantity" style="shape=partialRectangle;connectable=0;fillColor=none;top=0;left=0;bottom=0;right=0;align=left;spacingLeft=6;overflow=hidden;" vertex="1" parent="APkJGl1ul3EBngyCiWOz-34">
          <mxGeometry x="50" width="130" height="20" as="geometry" />
        </mxCell>
        <mxCell id="APkJGl1ul3EBngyCiWOz-37" value="" style="shape=partialRectangle;collapsible=0;dropTarget=0;pointerEvents=0;fillColor=none;top=0;left=0;bottom=0;right=0;points=[[0,0.5],[1,0.5]];portConstraint=eastwest;" vertex="1" parent="APkJGl1ul3EBngyCiWOz-1">
          <mxGeometry y="280" width="180" height="30" as="geometry" />
        </mxCell>
        <mxCell id="APkJGl1ul3EBngyCiWOz-38" value="" style="shape=partialRectangle;connectable=0;fillColor=none;top=0;left=0;bottom=0;right=0;editable=1;overflow=hidden;" vertex="1" parent="APkJGl1ul3EBngyCiWOz-37">
          <mxGeometry width="50" height="30" as="geometry" />
        </mxCell>
        <mxCell id="APkJGl1ul3EBngyCiWOz-39" value="DrugAmount" style="shape=partialRectangle;connectable=0;fillColor=none;top=0;left=0;bottom=0;right=0;align=left;spacingLeft=6;overflow=hidden;" vertex="1" parent="APkJGl1ul3EBngyCiWOz-37">
          <mxGeometry x="50" width="130" height="30" as="geometry" />
        </mxCell>
        <mxCell id="APkJGl1ul3EBngyCiWOz-46" value="Calendar_Dimension" style="shape=table;startSize=30;container=1;collapsible=1;childLayout=tableLayout;fixedRows=1;rowLines=0;fontStyle=1;align=center;resizeLast=1;" vertex="1" parent="1">
          <mxGeometry x="50" y="20" width="180" height="190" as="geometry" />
        </mxCell>
        <mxCell id="APkJGl1ul3EBngyCiWOz-47" value="" style="shape=partialRectangle;collapsible=0;dropTarget=0;pointerEvents=0;fillColor=none;top=0;left=0;bottom=1;right=0;points=[[0,0.5],[1,0.5]];portConstraint=eastwest;" vertex="1" parent="APkJGl1ul3EBngyCiWOz-46">
          <mxGeometry y="30" width="180" height="30" as="geometry" />
        </mxCell>
        <mxCell id="APkJGl1ul3EBngyCiWOz-48" value="PK" style="shape=partialRectangle;connectable=0;fillColor=none;top=0;left=0;bottom=0;right=0;fontStyle=1;overflow=hidden;" vertex="1" parent="APkJGl1ul3EBngyCiWOz-47">
          <mxGeometry width="30" height="30" as="geometry" />
        </mxCell>
        <mxCell id="APkJGl1ul3EBngyCiWOz-49" value="CalendarID" style="shape=partialRectangle;connectable=0;fillColor=none;top=0;left=0;bottom=0;right=0;align=left;spacingLeft=6;fontStyle=5;overflow=hidden;" vertex="1" parent="APkJGl1ul3EBngyCiWOz-47">
          <mxGeometry x="30" width="150" height="30" as="geometry" />
        </mxCell>
        <mxCell id="APkJGl1ul3EBngyCiWOz-50" value="" style="shape=partialRectangle;collapsible=0;dropTarget=0;pointerEvents=0;fillColor=none;top=0;left=0;bottom=0;right=0;points=[[0,0.5],[1,0.5]];portConstraint=eastwest;" vertex="1" parent="APkJGl1ul3EBngyCiWOz-46">
          <mxGeometry y="60" width="180" height="30" as="geometry" />
        </mxCell>
        <mxCell id="APkJGl1ul3EBngyCiWOz-51" value="" style="shape=partialRectangle;connectable=0;fillColor=none;top=0;left=0;bottom=0;right=0;editable=1;overflow=hidden;" vertex="1" parent="APkJGl1ul3EBngyCiWOz-50">
          <mxGeometry width="30" height="30" as="geometry" />
        </mxCell>
        <mxCell id="APkJGl1ul3EBngyCiWOz-52" value="DIeDate" style="shape=partialRectangle;connectable=0;fillColor=none;top=0;left=0;bottom=0;right=0;align=left;spacingLeft=6;overflow=hidden;" vertex="1" parent="APkJGl1ul3EBngyCiWOz-50">
          <mxGeometry x="30" width="150" height="30" as="geometry" />
        </mxCell>
        <mxCell id="APkJGl1ul3EBngyCiWOz-53" value="" style="shape=partialRectangle;collapsible=0;dropTarget=0;pointerEvents=0;fillColor=none;top=0;left=0;bottom=0;right=0;points=[[0,0.5],[1,0.5]];portConstraint=eastwest;" vertex="1" parent="APkJGl1ul3EBngyCiWOz-46">
          <mxGeometry y="90" width="180" height="30" as="geometry" />
        </mxCell>
        <mxCell id="APkJGl1ul3EBngyCiWOz-54" value="" style="shape=partialRectangle;connectable=0;fillColor=none;top=0;left=0;bottom=0;right=0;editable=1;overflow=hidden;" vertex="1" parent="APkJGl1ul3EBngyCiWOz-53">
          <mxGeometry width="30" height="30" as="geometry" />
        </mxCell>
        <mxCell id="APkJGl1ul3EBngyCiWOz-55" value="DayofWeek" style="shape=partialRectangle;connectable=0;fillColor=none;top=0;left=0;bottom=0;right=0;align=left;spacingLeft=6;overflow=hidden;" vertex="1" parent="APkJGl1ul3EBngyCiWOz-53">
          <mxGeometry x="30" width="150" height="30" as="geometry" />
        </mxCell>
        <mxCell id="APkJGl1ul3EBngyCiWOz-56" value="" style="shape=partialRectangle;collapsible=0;dropTarget=0;pointerEvents=0;fillColor=none;top=0;left=0;bottom=0;right=0;points=[[0,0.5],[1,0.5]];portConstraint=eastwest;" vertex="1" parent="APkJGl1ul3EBngyCiWOz-46">
          <mxGeometry y="120" width="180" height="30" as="geometry" />
        </mxCell>
        <mxCell id="APkJGl1ul3EBngyCiWOz-57" value="" style="shape=partialRectangle;connectable=0;fillColor=none;top=0;left=0;bottom=0;right=0;editable=1;overflow=hidden;" vertex="1" parent="APkJGl1ul3EBngyCiWOz-56">
          <mxGeometry width="30" height="30" as="geometry" />
        </mxCell>
        <mxCell id="APkJGl1ul3EBngyCiWOz-58" value="DayofMonth" style="shape=partialRectangle;connectable=0;fillColor=none;top=0;left=0;bottom=0;right=0;align=left;spacingLeft=6;overflow=hidden;" vertex="1" parent="APkJGl1ul3EBngyCiWOz-56">
          <mxGeometry x="30" width="150" height="30" as="geometry" />
        </mxCell>
        <mxCell id="APkJGl1ul3EBngyCiWOz-59" value="" style="shape=partialRectangle;collapsible=0;dropTarget=0;pointerEvents=0;fillColor=none;top=0;left=0;bottom=0;right=0;points=[[0,0.5],[1,0.5]];portConstraint=eastwest;" vertex="1" parent="APkJGl1ul3EBngyCiWOz-46">
          <mxGeometry y="150" width="180" height="30" as="geometry" />
        </mxCell>
        <mxCell id="APkJGl1ul3EBngyCiWOz-60" value="" style="shape=partialRectangle;connectable=0;fillColor=none;top=0;left=0;bottom=0;right=0;editable=1;overflow=hidden;" vertex="1" parent="APkJGl1ul3EBngyCiWOz-59">
          <mxGeometry width="30" height="30" as="geometry" />
        </mxCell>
        <mxCell id="APkJGl1ul3EBngyCiWOz-61" value="DayofYear" style="shape=partialRectangle;connectable=0;fillColor=none;top=0;left=0;bottom=0;right=0;align=left;spacingLeft=6;overflow=hidden;" vertex="1" parent="APkJGl1ul3EBngyCiWOz-59">
          <mxGeometry x="30" width="150" height="30" as="geometry" />
        </mxCell>
        <mxCell id="APkJGl1ul3EBngyCiWOz-65" value="Patient_Dimension" style="shape=table;startSize=30;container=1;collapsible=1;childLayout=tableLayout;fixedRows=1;rowLines=0;fontStyle=1;align=center;resizeLast=1;" vertex="1" parent="1">
          <mxGeometry x="560" y="10" width="180" height="190" as="geometry" />
        </mxCell>
        <mxCell id="APkJGl1ul3EBngyCiWOz-66" value="" style="shape=partialRectangle;collapsible=0;dropTarget=0;pointerEvents=0;fillColor=none;top=0;left=0;bottom=1;right=0;points=[[0,0.5],[1,0.5]];portConstraint=eastwest;" vertex="1" parent="APkJGl1ul3EBngyCiWOz-65">
          <mxGeometry y="30" width="180" height="30" as="geometry" />
        </mxCell>
        <mxCell id="APkJGl1ul3EBngyCiWOz-67" value="PK" style="shape=partialRectangle;connectable=0;fillColor=none;top=0;left=0;bottom=0;right=0;fontStyle=1;overflow=hidden;" vertex="1" parent="APkJGl1ul3EBngyCiWOz-66">
          <mxGeometry width="30" height="30" as="geometry" />
        </mxCell>
        <mxCell id="APkJGl1ul3EBngyCiWOz-68" value="PatientID" style="shape=partialRectangle;connectable=0;fillColor=none;top=0;left=0;bottom=0;right=0;align=left;spacingLeft=6;fontStyle=5;overflow=hidden;" vertex="1" parent="APkJGl1ul3EBngyCiWOz-66">
          <mxGeometry x="30" width="150" height="30" as="geometry" />
        </mxCell>
        <mxCell id="APkJGl1ul3EBngyCiWOz-69" value="" style="shape=partialRectangle;collapsible=0;dropTarget=0;pointerEvents=0;fillColor=none;top=0;left=0;bottom=0;right=0;points=[[0,0.5],[1,0.5]];portConstraint=eastwest;" vertex="1" parent="APkJGl1ul3EBngyCiWOz-65">
          <mxGeometry y="60" width="180" height="30" as="geometry" />
        </mxCell>
        <mxCell id="APkJGl1ul3EBngyCiWOz-70" value="" style="shape=partialRectangle;connectable=0;fillColor=none;top=0;left=0;bottom=0;right=0;editable=1;overflow=hidden;" vertex="1" parent="APkJGl1ul3EBngyCiWOz-69">
          <mxGeometry width="30" height="30" as="geometry" />
        </mxCell>
        <mxCell id="APkJGl1ul3EBngyCiWOz-71" value="PatientFName" style="shape=partialRectangle;connectable=0;fillColor=none;top=0;left=0;bottom=0;right=0;align=left;spacingLeft=6;overflow=hidden;" vertex="1" parent="APkJGl1ul3EBngyCiWOz-69">
          <mxGeometry x="30" width="150" height="30" as="geometry" />
        </mxCell>
        <mxCell id="APkJGl1ul3EBngyCiWOz-72" value="" style="shape=partialRectangle;collapsible=0;dropTarget=0;pointerEvents=0;fillColor=none;top=0;left=0;bottom=0;right=0;points=[[0,0.5],[1,0.5]];portConstraint=eastwest;" vertex="1" parent="APkJGl1ul3EBngyCiWOz-65">
          <mxGeometry y="90" width="180" height="30" as="geometry" />
        </mxCell>
        <mxCell id="APkJGl1ul3EBngyCiWOz-73" value="" style="shape=partialRectangle;connectable=0;fillColor=none;top=0;left=0;bottom=0;right=0;editable=1;overflow=hidden;" vertex="1" parent="APkJGl1ul3EBngyCiWOz-72">
          <mxGeometry width="30" height="30" as="geometry" />
        </mxCell>
        <mxCell id="APkJGl1ul3EBngyCiWOz-74" value="PatientLName" style="shape=partialRectangle;connectable=0;fillColor=none;top=0;left=0;bottom=0;right=0;align=left;spacingLeft=6;overflow=hidden;" vertex="1" parent="APkJGl1ul3EBngyCiWOz-72">
          <mxGeometry x="30" width="150" height="30" as="geometry" />
        </mxCell>
        <mxCell id="APkJGl1ul3EBngyCiWOz-75" value="" style="shape=partialRectangle;collapsible=0;dropTarget=0;pointerEvents=0;fillColor=none;top=0;left=0;bottom=0;right=0;points=[[0,0.5],[1,0.5]];portConstraint=eastwest;" vertex="1" parent="APkJGl1ul3EBngyCiWOz-65">
          <mxGeometry y="120" width="180" height="30" as="geometry" />
        </mxCell>
        <mxCell id="APkJGl1ul3EBngyCiWOz-76" value="" style="shape=partialRectangle;connectable=0;fillColor=none;top=0;left=0;bottom=0;right=0;editable=1;overflow=hidden;" vertex="1" parent="APkJGl1ul3EBngyCiWOz-75">
          <mxGeometry width="30" height="30" as="geometry" />
        </mxCell>
        <mxCell id="APkJGl1ul3EBngyCiWOz-77" value="PatientGender" style="shape=partialRectangle;connectable=0;fillColor=none;top=0;left=0;bottom=0;right=0;align=left;spacingLeft=6;overflow=hidden;" vertex="1" parent="APkJGl1ul3EBngyCiWOz-75">
          <mxGeometry x="30" width="150" height="30" as="geometry" />
        </mxCell>
        <mxCell id="APkJGl1ul3EBngyCiWOz-78" value="" style="shape=partialRectangle;collapsible=0;dropTarget=0;pointerEvents=0;fillColor=none;top=0;left=0;bottom=0;right=0;points=[[0,0.5],[1,0.5]];portConstraint=eastwest;" vertex="1" parent="APkJGl1ul3EBngyCiWOz-65">
          <mxGeometry y="150" width="180" height="30" as="geometry" />
        </mxCell>
        <mxCell id="APkJGl1ul3EBngyCiWOz-79" value="" style="shape=partialRectangle;connectable=0;fillColor=none;top=0;left=0;bottom=0;right=0;editable=1;overflow=hidden;" vertex="1" parent="APkJGl1ul3EBngyCiWOz-78">
          <mxGeometry width="30" height="30" as="geometry" />
        </mxCell>
        <mxCell id="APkJGl1ul3EBngyCiWOz-80" value="PatientBDate" style="shape=partialRectangle;connectable=0;fillColor=none;top=0;left=0;bottom=0;right=0;align=left;spacingLeft=6;overflow=hidden;" vertex="1" parent="APkJGl1ul3EBngyCiWOz-78">
          <mxGeometry x="30" width="150" height="30" as="geometry" />
        </mxCell>
        <mxCell id="APkJGl1ul3EBngyCiWOz-81" value="" style="edgeStyle=entityRelationEdgeStyle;fontSize=12;html=1;endArrow=classic;endFill=1;entryX=1;entryY=0.25;entryDx=0;entryDy=0;exitX=0;exitY=0.5;exitDx=0;exitDy=0;" edge="1" parent="1" source="APkJGl1ul3EBngyCiWOz-2" target="APkJGl1ul3EBngyCiWOz-46">
          <mxGeometry width="100" height="100" relative="1" as="geometry">
            <mxPoint x="240" y="270" as="sourcePoint" />
            <mxPoint x="120" y="210" as="targetPoint" />
          </mxGeometry>
        </mxCell>
        <mxCell id="APkJGl1ul3EBngyCiWOz-82" value="" style="edgeStyle=entityRelationEdgeStyle;fontSize=12;html=1;endArrow=classic;endFill=1;entryX=0;entryY=0.5;entryDx=0;entryDy=0;" edge="1" parent="1" target="APkJGl1ul3EBngyCiWOz-66">
          <mxGeometry width="100" height="100" relative="1" as="geometry">
            <mxPoint x="490" y="250" as="sourcePoint" />
            <mxPoint x="640" y="210" as="targetPoint" />
          </mxGeometry>
        </mxCell>
        <mxCell id="APkJGl1ul3EBngyCiWOz-83" value="Ingredient_Dimension" style="shape=table;startSize=30;container=1;collapsible=1;childLayout=tableLayout;fixedRows=1;rowLines=0;fontStyle=1;align=center;resizeLast=1;" vertex="1" parent="1">
          <mxGeometry x="50" y="270" width="180" height="130" as="geometry" />
        </mxCell>
        <mxCell id="APkJGl1ul3EBngyCiWOz-84" value="" style="shape=partialRectangle;collapsible=0;dropTarget=0;pointerEvents=0;fillColor=none;top=0;left=0;bottom=1;right=0;points=[[0,0.5],[1,0.5]];portConstraint=eastwest;" vertex="1" parent="APkJGl1ul3EBngyCiWOz-83">
          <mxGeometry y="30" width="180" height="30" as="geometry" />
        </mxCell>
        <mxCell id="APkJGl1ul3EBngyCiWOz-85" value="PK" style="shape=partialRectangle;connectable=0;fillColor=none;top=0;left=0;bottom=0;right=0;fontStyle=1;overflow=hidden;" vertex="1" parent="APkJGl1ul3EBngyCiWOz-84">
          <mxGeometry width="30" height="30" as="geometry" />
        </mxCell>
        <mxCell id="APkJGl1ul3EBngyCiWOz-86" value="IngID" style="shape=partialRectangle;connectable=0;fillColor=none;top=0;left=0;bottom=0;right=0;align=left;spacingLeft=6;fontStyle=5;overflow=hidden;" vertex="1" parent="APkJGl1ul3EBngyCiWOz-84">
          <mxGeometry x="30" width="150" height="30" as="geometry" />
        </mxCell>
        <mxCell id="APkJGl1ul3EBngyCiWOz-87" value="" style="shape=partialRectangle;collapsible=0;dropTarget=0;pointerEvents=0;fillColor=none;top=0;left=0;bottom=0;right=0;points=[[0,0.5],[1,0.5]];portConstraint=eastwest;" vertex="1" parent="APkJGl1ul3EBngyCiWOz-83">
          <mxGeometry y="60" width="180" height="30" as="geometry" />
        </mxCell>
        <mxCell id="APkJGl1ul3EBngyCiWOz-88" value="" style="shape=partialRectangle;connectable=0;fillColor=none;top=0;left=0;bottom=0;right=0;editable=1;overflow=hidden;" vertex="1" parent="APkJGl1ul3EBngyCiWOz-87">
          <mxGeometry width="30" height="30" as="geometry" />
        </mxCell>
        <mxCell id="APkJGl1ul3EBngyCiWOz-89" value="IngName" style="shape=partialRectangle;connectable=0;fillColor=none;top=0;left=0;bottom=0;right=0;align=left;spacingLeft=6;overflow=hidden;" vertex="1" parent="APkJGl1ul3EBngyCiWOz-87">
          <mxGeometry x="30" width="150" height="30" as="geometry" />
        </mxCell>
        <mxCell id="APkJGl1ul3EBngyCiWOz-90" value="" style="shape=partialRectangle;collapsible=0;dropTarget=0;pointerEvents=0;fillColor=none;top=0;left=0;bottom=0;right=0;points=[[0,0.5],[1,0.5]];portConstraint=eastwest;" vertex="1" parent="APkJGl1ul3EBngyCiWOz-83">
          <mxGeometry y="90" width="180" height="30" as="geometry" />
        </mxCell>
        <mxCell id="APkJGl1ul3EBngyCiWOz-91" value="" style="shape=partialRectangle;connectable=0;fillColor=none;top=0;left=0;bottom=0;right=0;editable=1;overflow=hidden;" vertex="1" parent="APkJGl1ul3EBngyCiWOz-90">
          <mxGeometry width="30" height="30" as="geometry" />
        </mxCell>
        <mxCell id="APkJGl1ul3EBngyCiWOz-92" value="Dosage" style="shape=partialRectangle;connectable=0;fillColor=none;top=0;left=0;bottom=0;right=0;align=left;spacingLeft=6;overflow=hidden;" vertex="1" parent="APkJGl1ul3EBngyCiWOz-90">
          <mxGeometry x="30" width="150" height="30" as="geometry" />
        </mxCell>
        <mxCell id="APkJGl1ul3EBngyCiWOz-96" value="" style="edgeStyle=entityRelationEdgeStyle;fontSize=12;html=1;endArrow=classic;endFill=1;exitX=0;exitY=0.5;exitDx=0;exitDy=0;entryX=0.892;entryY=1.283;entryDx=0;entryDy=0;entryPerimeter=0;" edge="1" parent="1" source="APkJGl1ul3EBngyCiWOz-24" target="APkJGl1ul3EBngyCiWOz-90">
          <mxGeometry width="100" height="100" relative="1" as="geometry">
            <mxPoint x="130" y="460" as="sourcePoint" />
            <mxPoint x="130" y="400" as="targetPoint" />
          </mxGeometry>
        </mxCell>
        <mxCell id="APkJGl1ul3EBngyCiWOz-97" value="Drug_Dimension" style="shape=table;startSize=30;container=1;collapsible=1;childLayout=tableLayout;fixedRows=1;rowLines=0;fontStyle=1;align=center;resizeLast=1;" vertex="1" parent="1">
          <mxGeometry x="560" y="390" width="180" height="130" as="geometry" />
        </mxCell>
        <mxCell id="APkJGl1ul3EBngyCiWOz-98" value="" style="shape=partialRectangle;collapsible=0;dropTarget=0;pointerEvents=0;fillColor=none;top=0;left=0;bottom=1;right=0;points=[[0,0.5],[1,0.5]];portConstraint=eastwest;" vertex="1" parent="APkJGl1ul3EBngyCiWOz-97">
          <mxGeometry y="30" width="180" height="30" as="geometry" />
        </mxCell>
        <mxCell id="APkJGl1ul3EBngyCiWOz-99" value="PK" style="shape=partialRectangle;connectable=0;fillColor=none;top=0;left=0;bottom=0;right=0;fontStyle=1;overflow=hidden;" vertex="1" parent="APkJGl1ul3EBngyCiWOz-98">
          <mxGeometry width="30" height="30" as="geometry" />
        </mxCell>
        <mxCell id="APkJGl1ul3EBngyCiWOz-100" value="DrugID" style="shape=partialRectangle;connectable=0;fillColor=none;top=0;left=0;bottom=0;right=0;align=left;spacingLeft=6;fontStyle=5;overflow=hidden;" vertex="1" parent="APkJGl1ul3EBngyCiWOz-98">
          <mxGeometry x="30" width="150" height="30" as="geometry" />
        </mxCell>
        <mxCell id="APkJGl1ul3EBngyCiWOz-101" value="" style="shape=partialRectangle;collapsible=0;dropTarget=0;pointerEvents=0;fillColor=none;top=0;left=0;bottom=0;right=0;points=[[0,0.5],[1,0.5]];portConstraint=eastwest;" vertex="1" parent="APkJGl1ul3EBngyCiWOz-97">
          <mxGeometry y="60" width="180" height="30" as="geometry" />
        </mxCell>
        <mxCell id="APkJGl1ul3EBngyCiWOz-102" value="" style="shape=partialRectangle;connectable=0;fillColor=none;top=0;left=0;bottom=0;right=0;editable=1;overflow=hidden;" vertex="1" parent="APkJGl1ul3EBngyCiWOz-101">
          <mxGeometry width="30" height="30" as="geometry" />
        </mxCell>
        <mxCell id="APkJGl1ul3EBngyCiWOz-103" value="DrugName" style="shape=partialRectangle;connectable=0;fillColor=none;top=0;left=0;bottom=0;right=0;align=left;spacingLeft=6;overflow=hidden;" vertex="1" parent="APkJGl1ul3EBngyCiWOz-101">
          <mxGeometry x="30" width="150" height="30" as="geometry" />
        </mxCell>
        <mxCell id="APkJGl1ul3EBngyCiWOz-104" value="" style="shape=partialRectangle;collapsible=0;dropTarget=0;pointerEvents=0;fillColor=none;top=0;left=0;bottom=0;right=0;points=[[0,0.5],[1,0.5]];portConstraint=eastwest;" vertex="1" parent="APkJGl1ul3EBngyCiWOz-97">
          <mxGeometry y="90" width="180" height="30" as="geometry" />
        </mxCell>
        <mxCell id="APkJGl1ul3EBngyCiWOz-105" value="" style="shape=partialRectangle;connectable=0;fillColor=none;top=0;left=0;bottom=0;right=0;editable=1;overflow=hidden;" vertex="1" parent="APkJGl1ul3EBngyCiWOz-104">
          <mxGeometry width="30" height="30" as="geometry" />
        </mxCell>
        <mxCell id="APkJGl1ul3EBngyCiWOz-106" value="DrugCoatingType" style="shape=partialRectangle;connectable=0;fillColor=none;top=0;left=0;bottom=0;right=0;align=left;spacingLeft=6;overflow=hidden;" vertex="1" parent="APkJGl1ul3EBngyCiWOz-104">
          <mxGeometry x="30" width="150" height="30" as="geometry" />
        </mxCell>
        <mxCell id="APkJGl1ul3EBngyCiWOz-110" value="" style="edgeStyle=entityRelationEdgeStyle;fontSize=12;html=1;endArrow=classic;endFill=1;exitX=1;exitY=0.5;exitDx=0;exitDy=0;entryX=0;entryY=0.5;entryDx=0;entryDy=0;" edge="1" parent="1" source="APkJGl1ul3EBngyCiWOz-21" target="APkJGl1ul3EBngyCiWOz-98">
          <mxGeometry width="100" height="100" relative="1" as="geometry">
            <mxPoint x="340" y="255" as="sourcePoint" />
            <mxPoint x="580" y="380" as="targetPoint" />
          </mxGeometry>
        </mxCell>
        <mxCell id="APkJGl1ul3EBngyCiWOz-113" value="Nurse_Dimension" style="shape=table;startSize=30;container=1;collapsible=1;childLayout=tableLayout;fixedRows=1;rowLines=0;fontStyle=1;align=center;resizeLast=1;" vertex="1" parent="1">
          <mxGeometry x="560" y="240" width="180" height="100" as="geometry" />
        </mxCell>
        <mxCell id="APkJGl1ul3EBngyCiWOz-114" value="" style="shape=partialRectangle;collapsible=0;dropTarget=0;pointerEvents=0;fillColor=none;top=0;left=0;bottom=1;right=0;points=[[0,0.5],[1,0.5]];portConstraint=eastwest;" vertex="1" parent="APkJGl1ul3EBngyCiWOz-113">
          <mxGeometry y="30" width="180" height="30" as="geometry" />
        </mxCell>
        <mxCell id="APkJGl1ul3EBngyCiWOz-115" value="PK" style="shape=partialRectangle;connectable=0;fillColor=none;top=0;left=0;bottom=0;right=0;fontStyle=1;overflow=hidden;" vertex="1" parent="APkJGl1ul3EBngyCiWOz-114">
          <mxGeometry width="30" height="30" as="geometry" />
        </mxCell>
        <mxCell id="APkJGl1ul3EBngyCiWOz-116" value="NurseID" style="shape=partialRectangle;connectable=0;fillColor=none;top=0;left=0;bottom=0;right=0;align=left;spacingLeft=6;fontStyle=5;overflow=hidden;" vertex="1" parent="APkJGl1ul3EBngyCiWOz-114">
          <mxGeometry x="30" width="150" height="30" as="geometry" />
        </mxCell>
        <mxCell id="APkJGl1ul3EBngyCiWOz-117" value="" style="shape=partialRectangle;collapsible=0;dropTarget=0;pointerEvents=0;fillColor=none;top=0;left=0;bottom=0;right=0;points=[[0,0.5],[1,0.5]];portConstraint=eastwest;" vertex="1" parent="APkJGl1ul3EBngyCiWOz-113">
          <mxGeometry y="60" width="180" height="30" as="geometry" />
        </mxCell>
        <mxCell id="APkJGl1ul3EBngyCiWOz-118" value="" style="shape=partialRectangle;connectable=0;fillColor=none;top=0;left=0;bottom=0;right=0;editable=1;overflow=hidden;" vertex="1" parent="APkJGl1ul3EBngyCiWOz-117">
          <mxGeometry width="30" height="30" as="geometry" />
        </mxCell>
        <mxCell id="APkJGl1ul3EBngyCiWOz-119" value="NurseName" style="shape=partialRectangle;connectable=0;fillColor=none;top=0;left=0;bottom=0;right=0;align=left;spacingLeft=6;overflow=hidden;" vertex="1" parent="APkJGl1ul3EBngyCiWOz-117">
          <mxGeometry x="30" width="150" height="30" as="geometry" />
        </mxCell>
        <mxCell id="APkJGl1ul3EBngyCiWOz-126" value="" style="edgeStyle=entityRelationEdgeStyle;fontSize=12;html=1;endArrow=classic;endFill=1;exitX=1;exitY=0.5;exitDx=0;exitDy=0;" edge="1" parent="1" source="APkJGl1ul3EBngyCiWOz-14">
          <mxGeometry width="100" height="100" relative="1" as="geometry">
            <mxPoint x="350" y="265" as="sourcePoint" />
            <mxPoint x="580" y="340" as="targetPoint" />
          </mxGeometry>
        </mxCell>
      </root>
    </mxGraphModel>
  </diagram>
</mxfile>
